<?xml version="1.0" standalone="no"?>
<!DOCTYPE svg PUBLIC "-//W3C//DTD SVG 20010904//EN"
 "http://www.w3.org/TR/2001/REC-SVG-20010904/DTD/svg10.dtd">
<svg version="1.0" xmlns="http://www.w3.org/2000/svg"
 width="965.000000pt" height="610.000000pt" viewBox="0 0 965.000000 610.000000"
 preserveAspectRatio="xMidYMid meet">

<g transform="translate(0.000000,610.000000) scale(0.100000,-0.100000)"
fill="#000000" stroke="none">
<path d="M890 6061 c-19 -36 12 -204 47 -257 8 -13 11 -24 6 -24 -12 0 -45 45
-72 98 -28 54 -55 54 -59 1 -4 -52 58 -200 116 -277 42 -55 130 -133 164 -144
8 -3 -9 -29 -44 -68 -58 -66 -97 -136 -138 -250 -13 -36 -50 -104 -82 -152
-32 -48 -73 -120 -92 -160 -18 -40 -44 -86 -58 -103 -13 -16 -39 -51 -56 -76
-17 -26 -68 -89 -112 -140 -44 -52 -105 -134 -135 -184 -74 -123 -96 -152
-147 -188 -56 -41 -60 -47 -89 -129 -23 -66 -23 -70 -6 -96 9 -15 27 -49 41
-77 21 -44 120 -150 214 -228 34 -29 96 -40 145 -26 23 7 62 11 87 10 33 -2
82 11 175 44 305 110 283 104 431 114 135 9 197 5 257 -18 27 -10 33 -7 90 44
33 30 66 55 74 55 27 0 12 -28 -37 -69 -27 -23 -50 -46 -50 -50 0 -4 26 -12
58 -18 110 -21 241 -79 342 -153 144 -106 167 -127 212 -188 23 -31 67 -82 98
-112 58 -57 103 -138 127 -225 13 -51 69 -396 98 -607 18 -138 26 -162 79
-251 62 -104 156 -195 258 -250 47 -26 93 -47 101 -47 9 0 31 -30 53 -70 27
-51 40 -68 49 -60 17 14 148 31 159 20 16 -16 -4 -27 -64 -34 -85 -10 -95 -14
-76 -35 8 -9 26 -47 41 -86 24 -63 28 -91 36 -275 6 -113 17 -244 25 -291 11
-64 13 -97 5 -125 -5 -22 -12 -66 -16 -99 -10 -95 -11 -98 -82 -156 -37 -31
-117 -103 -178 -159 -60 -56 -134 -118 -162 -137 -91 -58 -71 -77 110 -100
143 -18 288 -12 438 17 166 32 189 52 189 166 0 68 54 176 106 211 76 52 83
127 25 265 -48 115 -56 173 -54 408 2 256 7 362 20 384 10 18 12 17 28 -15 10
-19 34 -56 55 -84 52 -71 60 -88 71 -158 6 -34 21 -100 34 -147 44 -156 68
-350 61 -474 -4 -61 -8 -124 -8 -140 -1 -36 -117 -162 -195 -212 -57 -36 -64
-51 -35 -77 40 -37 166 -58 347 -58 191 0 240 10 264 53 13 23 13 34 2 80 -7
29 -15 70 -18 90 -5 37 -4 38 27 38 22 0 41 9 61 29 41 41 38 87 -10 215 -69
183 -73 213 -69 456 3 211 0 249 -36 450 -12 67 -47 156 -86 217 -17 26 -11
32 75 80 44 24 61 27 140 28 50 0 127 -4 172 -9 l83 -8 -34 74 c-45 97 -53
128 -32 128 9 0 22 -16 31 -38 8 -20 28 -65 43 -99 l27 -62 142 -1 c118 0 151
-3 193 -20 239 -94 746 -147 1001 -104 112 19 242 60 356 114 l82 38 20 -31
c26 -42 184 -195 241 -234 62 -42 176 -98 230 -114 25 -7 48 -15 52 -18 3 -3
9 -42 13 -86 9 -122 35 -157 90 -121 27 18 45 70 45 133 0 23 4 44 9 47 9 6
73 -168 90 -246 6 -24 13 -98 17 -164 7 -115 6 -121 -21 -184 -15 -36 -43
-102 -62 -148 -19 -45 -50 -109 -69 -143 -18 -33 -34 -66 -34 -73 0 -17 -186
-173 -264 -220 -95 -58 -100 -69 -54 -111 50 -46 131 -67 320 -80 157 -12 356
30 399 83 19 24 21 35 15 103 -7 90 -2 109 31 109 37 0 79 26 91 57 6 15 13
62 16 103 15 182 27 278 45 344 11 39 23 96 26 126 15 116 93 361 157 487 61
121 65 135 57 225 -3 33 3 44 52 96 29 32 63 62 73 65 16 5 49 -23 155 -131
75 -76 151 -148 169 -160 41 -30 49 -45 61 -123 10 -58 85 -280 116 -338 7
-14 21 -26 31 -27 11 -1 47 -5 82 -9 34 -5 65 -12 68 -17 13 -21 -14 -27 -80
-17 -38 5 -70 8 -71 7 -7 -12 16 -215 30 -258 17 -54 17 -57 -4 -126 -12 -39
-21 -80 -21 -92 0 -11 -16 -39 -36 -63 -41 -50 -65 -92 -73 -133 -5 -24 -26
-42 -111 -97 -58 -37 -118 -71 -135 -74 -44 -10 -75 -33 -75 -54 0 -30 55 -75
108 -88 106 -28 280 -37 497 -26 208 11 209 11 232 38 29 33 30 87 3 173 -24
77 -24 82 -4 82 8 0 29 13 45 29 35 35 36 60 10 174 -45 193 -57 545 -30 877
13 167 4 588 -14 658 -8 29 -13 51 -11 50 16 -17 98 -147 121 -193 37 -73 98
-156 138 -187 29 -22 29 -21 -6 22 -58 73 -56 76 16 21 88 -67 155 -101 202
-101 29 0 35 3 23 11 -11 7 2 8 45 4 43 -5 56 -3 45 4 -8 6 -28 11 -45 12 -29
1 -30 1 -5 9 14 4 50 6 80 3 l55 -4 -40 19 c-22 11 -49 27 -60 37 l-20 17 20
-7 c42 -15 75 -23 75 -20 0 2 -20 15 -45 29 -25 15 -45 32 -45 38 0 7 7 5 18
-4 9 -9 33 -23 52 -32 l35 -17 -25 21 c-14 11 -51 42 -82 68 -32 26 -58 51
-58 56 0 6 15 -4 33 -21 43 -40 107 -87 112 -82 2 2 -32 36 -75 74 -44 39 -79
73 -80 77 0 4 21 -6 47 -22 91 -58 64 -29 -49 52 -63 46 -132 98 -154 117 -34
29 -36 33 -14 27 70 -18 81 -16 30 6 -84 36 -169 96 -206 147 -66 90 -109 271
-124 523 -12 196 -17 737 -11 1088 4 199 1 264 -18 424 -48 414 -70 472 -249
679 -136 157 -229 222 -432 302 l-95 38 -225 3 c-124 2 -304 11 -401 20 -135
12 -190 13 -235 5 -57 -10 -81 -21 -284 -127 -92 -48 -327 -147 -421 -178
-116 -38 -173 -41 -659 -40 -368 1 -510 5 -630 17 -85 9 -225 17 -310 17 -85
0 -236 5 -335 10 -166 8 -195 13 -360 55 -99 26 -265 68 -370 95 -104 27 -230
60 -280 75 -164 47 -278 44 -480 -15 -187 -55 -216 -70 -304 -159 -43 -45 -82
-81 -85 -81 -19 0 0 42 41 89 26 30 38 49 27 43 -40 -21 -178 -44 -232 -37
-28 4 -125 27 -215 51 -89 25 -171 46 -181 47 -18 2 -57 -40 -92 -99 -9 -15
-15 -16 -24 -7 -10 9 -8 20 10 50 13 21 32 48 42 59 l19 22 -68 22 c-37 12
-108 40 -157 62 -92 40 -225 73 -261 64 -32 -9 -163 40 -322 119 -167 82 -213
120 -289 236 -52 78 -76 93 -94 60z m1114 -750 c3 -5 -1 -41 -10 -80 -11 -50
-21 -71 -31 -71 -13 0 -14 8 -9 43 16 97 33 136 50 108z m4693 -13 c6 -7 26
-53 46 -101 31 -74 34 -89 21 -94 -18 -7 -13 -15 -57 92 -38 92 -44 115 -28
115 5 0 13 -6 18 -12z m-3529 -22 c28 -34 24 -57 -17 -96 -46 -44 -51 -54 -21
-45 27 9 60 -3 60 -21 0 -11 -16 -14 -70 -14 -58 0 -70 3 -70 16 0 17 64 84
80 84 16 0 20 34 6 48 -12 13 -18 13 -30 2 -9 -7 -16 -19 -16 -26 0 -16 -26
-19 -35 -4 -9 14 22 68 42 72 26 5 61 -2 71 -16z m-508 -36 c0 -18 -91 -200
-100 -200 -24 0 -18 30 25 116 26 52 53 94 61 94 8 0 14 -5 14 -10z m1920 -1
c0 -29 -34 -195 -41 -203 -30 -33 -27 48 6 192 5 22 35 32 35 11z m1959 -53
c-5 -4 -160 -76 -165 -76 -2 0 -4 7 -4 14 0 13 87 61 140 79 15 4 38 -9 29
-17z m991 -4 c34 -28 40 -117 10 -154 -26 -34 -69 -37 -96 -7 -14 16 -19 36
-19 81 0 51 4 63 24 79 29 24 52 24 81 1z m-160 -87 c0 -88 -1 -95 -20 -95
-18 0 -20 7 -20 59 0 54 -2 60 -22 63 -25 4 -37 28 -14 28 9 0 24 9 33 20 35
40 43 26 43 -75z m-1041 -7 c0 -14 -123 -108 -140 -108 -25 0 -3 31 54 73 63
47 88 57 86 35z m-4229 -93 c0 -88 -1 -95 -20 -95 -18 0 -20 7 -20 65 0 63 -1
65 -25 65 -32 0 -32 18 -1 30 13 5 27 14 31 19 3 6 13 11 21 11 11 0 14 -19
14 -95z m6425 66 c8 -14 -83 -74 -101 -67 -20 8 -11 21 34 51 40 26 58 30 67
16z m-1699 -89 c37 -117 39 -134 18 -130 -13 2 -25 28 -45 98 -33 113 -33 112
-13 108 11 -2 25 -29 40 -76z m-4282 19 c4 -5 -3 -47 -14 -93 -11 -45 -20 -86
-20 -90 0 -3 43 -4 95 -1 82 5 95 4 95 -10 0 -16 -41 -24 -155 -29 l-60 -3 -3
34 c-3 32 2 61 29 164 9 36 22 46 33 28z m2730 -22 c11 -16 12 -28 5 -47 -7
-17 -6 -29 1 -36 15 -15 12 -47 -7 -68 -31 -35 -123 -14 -123 29 0 21 30 15
50 -9 15 -19 20 -20 34 -9 22 18 20 42 -4 48 -26 7 -26 25 0 41 12 7 18 17 15
22 -9 15 -42 12 -49 -5 -7 -20 -36 -19 -36 2 0 49 85 73 114 32z m-748 -36
c-17 -126 -28 -173 -42 -173 -18 0 -18 24 1 130 8 47 15 86 15 88 0 1 7 2 16
2 14 0 16 -8 10 -47z m3851 31 c3 -9 -172 -114 -191 -114 -4 0 -6 8 -4 17 3
18 155 112 177 110 8 -1 16 -7 18 -13z m-2227 -15 c0 -18 -102 -139 -117 -139
-7 0 -13 3 -13 7 0 9 48 72 83 111 32 33 47 40 47 21z m1988 -117 c4 -14 -175
-105 -195 -98 -24 9 -6 24 85 71 88 44 103 48 110 27z m-6214 -114 c5 -90 3
-108 -9 -108 -24 0 -42 167 -22 214 14 36 24 2 31 -106z m1054 75 c3 -10 -23
-13 -107 -13 -101 0 -131 6 -114 24 13 13 216 2 221 -11z m232 -2 c21 -4 35
-13 35 -21 0 -8 -4 -15 -10 -15 -5 1 -52 4 -103 9 -88 8 -110 15 -98 35 6 9
114 4 176 -8z m3677 -56 c7 -27 15 -75 19 -107 5 -48 4 -58 -8 -58 -11 0 -20
24 -32 89 -9 49 -16 99 -16 111 0 39 24 16 37 -35z m-3449 24 c72 -12 93 -23
76 -39 -9 -8 -198 20 -209 32 -14 14 8 29 33 24 15 -3 60 -10 100 -17z m2532
-73 c-48 -87 -66 -106 -57 -56 10 46 77 154 89 142 6 -6 -5 -37 -32 -86z m514
78 c18 -17 21 -44 7 -44 -5 0 -17 8 -26 17 -13 12 -21 14 -33 7 -29 -19 -26
-34 6 -28 35 7 72 -22 72 -56 0 -27 -43 -70 -70 -70 -11 0 -32 11 -45 25 -53
52 -19 165 49 165 13 0 32 -7 40 -16z m-3993 -145 c-4 -115 -6 -125 -27 -108
-11 9 -12 31 -8 103 7 106 10 119 27 113 9 -3 11 -31 8 -108z m1198 87 c102
-27 110 -31 93 -48 -9 -9 -26 -8 -69 4 -32 9 -77 21 -100 28 -26 6 -43 17 -43
25 0 20 10 19 119 -9z m4199 6 c6 -19 -190 -103 -205 -89 -11 12 11 27 99 67
86 39 99 42 106 22z m-3398 -14 c0 -7 -7 -53 -15 -103 -8 -49 -15 -93 -15 -97
0 -5 -7 -8 -15 -8 -18 0 -19 24 -4 123 13 91 15 97 34 97 8 0 15 -6 15 -12z
m4109 -135 c53 -345 62 -493 71 -1113 8 -598 11 -634 64 -805 9 -27 16 -51 16
-52 0 -2 -7 -3 -15 -3 -21 0 -71 91 -99 180 -23 71 -37 164 -51 341 -6 75 -7
77 -36 83 -40 8 -39 36 1 36 30 0 30 1 24 43 -3 23 -16 88 -29 143 -49 207
-58 323 -59 704 l-1 355 34 74 c18 41 36 92 39 113 2 21 8 38 12 38 4 0 17
-62 29 -137z m-4663 71 c92 -31 114 -41 114 -54 0 -17 -31 -11 -127 21 -89 29
-102 37 -86 52 10 10 14 9 99 -19z m3704 -25 c0 -7 -7 -17 -16 -24 -15 -11
-15 -17 0 -83 20 -87 20 -112 2 -112 -14 0 -22 27 -41 133 -8 43 -12 44 -83
17 -63 -24 -74 -25 -70 -4 2 11 35 29 88 50 91 35 120 41 120 23z m-3436 -75
c87 -37 105 -49 90 -64 -7 -7 -187 60 -202 75 -6 5 8 25 18 25 4 0 47 -16 94
-36z m1682 -59 c-22 -74 -46 -110 -46 -68 0 23 28 120 42 147 23 42 25 -5 4
-79z m-3942 54 c3 -17 6 -67 6 -111 0 -70 -2 -79 -17 -76 -16 3 -18 18 -21
111 -2 87 0 107 11 107 8 0 17 -14 21 -31z m5431 -20 c0 -8 -32 -24 -85 -40
-99 -32 -120 -34 -120 -14 0 9 31 24 93 44 98 31 112 32 112 10z m-451 -5 c3
-9 6 -33 6 -55 0 -21 3 -39 6 -39 3 0 42 9 86 21 59 15 84 17 92 9 16 -16 -4
-25 -96 -46 l-78 -18 0 -37 c0 -48 -17 -59 -33 -21 -6 16 -16 30 -22 30 -18 2
-17 32 1 32 15 0 16 8 10 63 -3 35 -3 67 1 70 11 11 20 8 27 -9z m1066 -99 c0
-88 -1 -95 -20 -95 -18 0 -20 7 -20 60 0 53 -2 60 -19 60 -33 0 -33 18 -1 35
16 8 30 20 30 25 0 6 7 10 15 10 12 0 15 -17 15 -95z m150 0 c0 -88 -1 -95
-20 -95 -18 0 -20 7 -20 60 0 53 -2 60 -20 60 -28 0 -25 25 5 38 14 6 25 16
25 22 0 5 7 10 15 10 12 0 15 -17 15 -95z m-5649 -65 c2 -86 0 -105 -12 -105
-19 0 -34 192 -17 212 20 24 26 0 29 -107z m1942 96 c40 -13 97 -27 128 -31
68 -8 89 -19 72 -36 -10 -10 -30 -9 -94 4 -46 9 -86 14 -90 12 -3 -3 -10 -35
-14 -72 -8 -81 -13 -93 -32 -93 -12 0 -14 9 -9 48 20 141 22 127 -19 150 -20
12 -33 27 -30 32 8 13 6 14 88 -14z m375 -70 c97 -14 112 -20 95 -37 -8 -8
-34 -7 -89 0 -113 16 -124 20 -124 36 0 18 0 18 118 1z m2007 -17 c0 -10 -23
-17 -80 -26 -110 -16 -135 -16 -135 2 0 15 14 18 130 34 76 10 85 9 85 -10z
m-1642 -26 c4 -2 7 -11 7 -20 0 -13 -10 -14 -67 -9 -132 13 -153 18 -153 33 0
13 15 14 103 8 56 -4 105 -9 110 -12z m2510 -85 c16 -65 22 -107 16 -112 -15
-16 -25 4 -48 96 -25 102 -26 118 -7 118 9 0 22 -35 39 -102z m-1135 80 c-6
-16 -52 -25 -147 -30 -62 -2 -76 0 -76 12 0 16 55 25 168 28 42 2 58 -1 55
-10z m-1110 -14 c6 -2 12 -11 12 -20 0 -14 -11 -15 -102 -9 -102 7 -126 14
-114 33 6 10 171 7 204 -4z m837 -4 c11 -18 -44 -30 -136 -30 -71 0 -89 3 -89
14 0 11 15 16 53 19 111 7 166 7 172 -3z m-550 -20 c0 -12 -17 -15 -97 -14
-103 2 -133 7 -123 24 4 7 47 10 113 8 87 -2 107 -6 107 -18z m273 3 c-3 -16
-18 -18 -111 -21 -85 -2 -107 0 -107 11 0 24 12 27 117 27 94 0 104 -2 101
-17z m-4063 -4 c10 -15 -23 -140 -46 -179 -15 -23 -23 -30 -31 -22 -8 8 -5 25
9 59 12 26 24 64 28 83 14 71 24 86 40 59z m5003 -150 c-2 -84 -6 -104 -18
-104 -13 0 -14 17 -11 105 3 110 7 128 22 113 6 -6 8 -57 7 -114z m-4434 -49
c7 -104 5 -120 -19 -120 -10 0 -14 23 -17 100 -3 111 -2 120 16 120 9 0 15
-29 20 -100z m1902 -7 c-8 -102 -20 -143 -38 -125 -7 7 -7 41 2 109 13 105 15
113 32 113 7 0 9 -30 4 -97z m1242 2 c40 -81 48 -126 21 -109 -15 9 -89 164
-89 187 0 38 26 8 68 -78z m1775 13 c26 -30 21 -47 -24 -89 l-41 -38 38 -3
c27 -2 40 -8 42 -20 3 -16 -5 -18 -67 -18 -64 0 -71 2 -71 19 0 11 20 36 45
57 32 26 45 43 43 58 -4 28 -30 27 -43 -1 -12 -29 -45 -31 -45 -3 0 12 11 32
26 46 29 30 67 27 97 -8z m-175 -76 c3 -87 2 -92 -18 -92 -18 0 -20 6 -20 60
0 57 -1 60 -25 60 -16 0 -25 6 -25 15 0 8 6 15 13 15 8 0 22 9 32 20 31 34 40
19 43 -78z m505 -29 c16 -56 22 -92 16 -97 -14 -15 -25 3 -48 80 -24 83 -26
104 -8 104 8 0 24 -35 40 -87z m677 72 c0 -12 -15 -15 -74 -15 -69 0 -95 8
-79 24 3 3 39 6 80 6 58 0 73 -3 73 -15z m-192 -7 c-3 -7 -31 -18 -64 -24 -33
-7 -66 -14 -73 -16 -7 -2 -15 2 -18 8 -2 7 20 18 54 27 74 19 106 21 101 5z
m-4618 -48 c0 -27 5 -50 10 -50 6 0 10 -9 10 -20 0 -11 -4 -20 -9 -20 -5 0
-11 -10 -13 -22 -5 -34 -38 -37 -38 -4 0 24 -4 26 -40 26 -52 0 -53 19 -2 88
25 35 44 52 60 52 20 0 22 -5 22 -50z m-1780 16 c0 -17 -94 -147 -115 -159
-33 -18 -34 6 -2 46 19 23 48 63 66 90 30 44 51 54 51 23z m4466 0 c3 -8 -7
-32 -21 -54 -15 -22 -29 -59 -32 -81 -5 -34 -9 -41 -28 -41 -21 0 -22 3 -16
33 5 17 18 51 30 75 l21 42 -40 0 c-33 0 -40 3 -40 20 0 18 7 20 60 20 43 0
62 -4 66 -14z m1739 -16 c3 -5 -24 -23 -61 -40 -73 -33 -84 -35 -84 -19 0 5
28 23 63 39 70 33 74 34 82 20z m-1115 -52 c0 -24 -16 -136 -25 -175 -3 -13
-12 -23 -20 -23 -18 0 -18 -1 -4 97 15 113 18 123 34 123 9 0 15 -9 15 -22z
m-1141 -105 c66 -88 74 -129 14 -72 -48 48 -106 135 -98 149 11 17 18 10 84
-77z m2081 68 c0 -14 -113 -101 -123 -94 -11 7 17 38 67 74 41 30 56 35 56 20z
m-5366 -9 c10 -17 -15 -197 -29 -211 -22 -23 -28 7 -16 75 6 32 11 74 11 94 0
20 3 40 7 43 9 9 21 9 27 -1z m1877 -16 c2 -3 0 -51 -6 -108 -8 -80 -13 -103
-25 -103 -16 0 -17 23 -5 148 4 43 11 67 19 67 7 0 15 -2 17 -4z m3459 -181
c33 -99 35 -105 19 -105 -5 0 -8 4 -4 9 3 6 -3 14 -12 20 -22 11 -68 145 -58
168 9 26 22 4 55 -92z m-838 23 c29 -17 63 -38 76 -45 26 -16 29 -43 4 -43
-27 0 -156 83 -160 103 -5 26 20 21 80 -15z m-1044 -64 c37 -30 75 -62 86 -71
13 -10 15 -18 8 -25 -8 -8 -22 -4 -49 15 -60 40 -135 115 -128 127 9 15 11 14
83 -46z m926 28 c5 -8 -10 -83 -35 -174 -10 -37 -39 -54 -39 -23 0 14 34 157
45 193 5 14 21 16 29 4z m1440 -7 c14 -10 17 -23 14 -47 -3 -18 -1 -40 5 -49
14 -22 1 -66 -24 -80 -46 -24 -132 22 -100 54 8 8 17 5 32 -12 12 -12 28 -20
36 -17 8 3 17 6 19 6 2 0 4 9 4 21 0 12 -8 23 -20 26 -23 6 -27 33 -5 33 8 0
15 9 15 20 0 24 -22 26 -40 5 -7 -8 -19 -15 -26 -15 -20 0 -17 27 6 50 23 23
57 25 84 5z m-164 -90 c0 -88 -1 -95 -20 -95 -18 0 -20 7 -20 59 0 54 -2 59
-25 65 -32 8 -32 24 -1 32 14 3 27 12 30 20 3 8 12 14 21 14 12 0 15 -16 15
-95z m-910 26 c53 -17 85 -33 85 -42 0 -20 -68 -16 -150 11 -49 15 -59 24 -52
44 8 21 17 20 117 -13z m-4808 -73 c-11 -40 -20 -73 -19 -74 1 -2 34 6 72 17
146 40 159 10 14 -33 -52 -16 -102 -31 -111 -35 -24 -7 -23 10 4 111 24 90 36
112 51 97 7 -7 3 -34 -11 -83z m1913 60 c3 -7 2 -56 -3 -108 -6 -79 -10 -95
-25 -98 -16 -3 -17 4 -11 85 3 48 7 98 10 111 5 24 22 30 29 10z m3465 -28
c25 -17 -14 -38 -84 -45 -74 -8 -108 -4 -113 12 -5 13 8 17 107 31 36 5 67 10
70 10 3 1 12 -3 20 -8z m-298 -10 c35 0 50 -4 55 -16 9 -24 -16 -34 -77 -28
-107 10 -120 13 -120 36 0 19 4 20 46 14 26 -3 69 -6 96 -6z m-1323 -66 c50
-26 91 -53 91 -60 0 -22 -20 -17 -105 27 -91 46 -100 53 -91 68 10 15 3 17
105 -35z m1733 -54 c25 -63 35 -97 28 -104 -6 -6 -13 -6 -19 0 -15 14 -79 188
-74 197 12 20 31 -7 65 -93z m-5052 76 c0 -11 -20 -16 -77 -21 -138 -11 -138
-11 -138 5 0 18 43 27 143 29 56 1 72 -2 72 -13z m230 -5 c22 -4 36 -13 38
-25 4 -16 -1 -18 -34 -11 -21 3 -68 10 -106 14 -72 8 -84 13 -73 31 7 12 97 7
175 -9z m205 -51 c93 -30 116 -44 99 -60 -8 -7 -197 50 -211 63 -5 6 5 27 12
27 3 0 47 -14 100 -30z m2587 -21 c2 -7 -4 -55 -14 -108 -9 -53 -17 -97 -18
-98 -1 -12 -30 1 -30 13 0 28 22 158 31 181 9 25 25 30 31 12z m541 -40 c78
-19 118 -41 104 -55 -6 -7 -55 3 -154 32 -33 9 -53 20 -53 29 0 19 6 19 103
-6z m377 11 c0 -23 -44 -186 -53 -198 -33 -42 -25 46 15 176 9 29 38 46 38 22z
m-3230 -80 c0 -21 -22 -19 -69 4 -53 27 -66 40 -56 56 7 11 125 -45 125 -60z
m-1200 -80 c0 -87 -3 -110 -14 -110 -17 0 -26 31 -26 95 0 75 11 125 26 125
11 0 14 -24 14 -110z m1948 -31 c-2 -84 -6 -104 -18 -104 -12 0 -15 17 -13 99
2 107 8 135 24 119 6 -6 9 -53 7 -114z m-601 66 c52 -17 93 -36 93 -42 0 -20
-37 -15 -125 15 -57 19 -81 32 -83 45 -4 22 -9 22 115 -18z m1471 9 c23 -16
29 -43 12 -60 -8 -8 -6 -15 5 -24 22 -18 18 -56 -7 -74 -48 -34 -118 -8 -118
44 0 16 5 32 10 35 6 4 7 12 1 22 -28 50 45 94 97 57z m2804 -50 c19 -44 21
-46 51 -39 18 3 56 9 85 12 43 5 52 3 52 -10 0 -11 -12 -18 -37 -22 -21 -3
-69 -13 -106 -22 -72 -16 -88 -13 -70 16 8 13 7 23 -3 42 -16 29 -18 69 -3 69
5 0 19 -21 31 -46z m-832 -84 c0 -83 -1 -90 -20 -90 -18 0 -20 7 -20 60 0 57
-1 60 -25 60 -15 0 -25 6 -25 14 0 8 11 17 25 20 14 4 25 11 25 16 0 6 9 10
20 10 19 0 20 -7 20 -90z m160 44 c0 -33 5 -51 18 -60 16 -13 16 -15 0 -28
-10 -7 -18 -21 -18 -30 0 -9 -8 -16 -20 -16 -13 0 -20 7 -20 19 0 16 -8 20
-37 23 -20 2 -38 8 -40 14 -6 18 77 124 98 124 16 0 19 -7 19 -46z m-3312 20
c63 -7 82 -18 64 -36 -6 -6 -38 -5 -93 2 -107 14 -119 18 -119 37 0 13 8 14
43 9 23 -3 70 -9 105 -12z m4390 10 c34 -5 52 -11 52 -20 0 -11 -24 -14 -110
-14 -89 0 -110 3 -110 14 0 14 17 18 95 24 11 1 44 -1 73 -4z m-4154 -45 c-3
-5 -30 -9 -60 -9 -40 0 -54 4 -54 14 0 11 14 16 48 18 48 3 76 -7 66 -23z
m1599 -16 c11 -18 18 -211 8 -217 -20 -13 -31 34 -31 128 0 84 8 114 23 89z
m891 -39 c-2 -37 -26 -189 -30 -196 -12 -20 -24 -5 -24 30 0 38 17 156 25 180
7 20 30 8 29 -14z m1176 11 c0 -9 -38 -32 -96 -60 -54 -25 -99 -45 -100 -45
-10 0 -2 39 9 43 6 3 48 22 92 41 91 41 95 42 95 21z m-3592 -198 c2 -86 0
-107 -11 -107 -14 0 -27 83 -27 178 0 36 3 43 18 40 15 -3 17 -18 20 -111z
m3352 74 c0 -12 -159 -131 -175 -131 -36 0 2 42 99 109 53 37 76 43 76 22z
m-1325 -116 c52 -51 22 -175 -42 -175 -28 0 -63 25 -63 46 0 7 8 10 20 7 11
-3 20 -9 20 -14 0 -5 9 -9 20 -9 11 0 20 2 20 4 0 2 3 11 6 19 4 11 -1 13 -19
10 -53 -10 -88 38 -67 92 9 24 38 43 68 44 7 1 24 -10 37 -24z m-465 -37 c6
-24 19 -70 30 -102 19 -58 19 -76 0 -76 -19 0 -77 190 -65 211 12 19 25 8 35
-33z m809 -86 c-11 -87 -29 -135 -45 -120 -9 10 16 200 29 216 22 27 28 -7 16
-96z m764 72 c9 -9 -133 -175 -144 -168 -17 10 -9 30 34 79 24 28 52 60 62 73
19 22 36 28 48 16z m-3124 -86 c4 -13 11 -52 15 -88 4 -36 10 -75 13 -87 4
-18 1 -23 -15 -23 -17 0 -21 11 -31 88 -14 109 -14 132 -1 132 6 0 14 -10 19
-22z m2607 -15 c8 -3 14 -12 14 -20 0 -12 -9 -14 -42 -9 -24 3 -67 8 -95 12
-38 5 -53 11 -53 22 0 12 13 13 81 7 45 -3 88 -9 95 -12z m1054 -88 c0 -88 -1
-95 -20 -95 -18 0 -20 7 -20 59 0 54 -2 60 -22 63 -25 4 -37 28 -14 28 9 0 24
9 33 20 35 40 43 26 43 -75z m180 75 c0 -17 -7 -20 -40 -20 -27 0 -40 -4 -40
-14 0 -9 8 -12 24 -9 16 3 31 -2 45 -16 62 -62 -30 -149 -99 -93 -33 27 -17
47 20 26 32 -20 60 -13 60 14 0 32 -23 45 -54 31 -14 -7 -29 -10 -32 -6 -3 3
-3 29 1 56 l7 51 54 0 c47 0 54 -2 54 -20z m-1027 -45 c26 -9 47 -23 47 -31 0
-19 -11 -18 -98 13 -85 29 -97 36 -88 52 7 10 34 3 139 -34z m-1144 -140 c28
-53 51 -98 51 -100 0 -3 -9 -5 -19 -5 -14 0 -32 25 -66 90 -42 82 -49 110 -25
110 4 0 31 -43 59 -95z m1347 39 c52 -33 73 -58 61 -70 -9 -9 -166 90 -167
105 0 20 41 6 106 -35z m-3806 21 c0 -10 -10 -15 -34 -15 -18 0 -39 -7 -46
-15 -11 -13 -8 -15 22 -15 44 0 58 -15 58 -62 0 -43 -19 -58 -74 -58 -25 0
-39 6 -51 23 -15 21 -14 22 6 25 11 2 26 -4 33 -13 14 -20 42 -11 49 15 7 29
-16 42 -58 34 l-37 -7 7 34 c14 71 12 69 71 69 41 0 54 -4 54 -15z m3110 -22
c0 -27 -49 -181 -60 -188 -24 -15 -27 9 -10 63 11 31 24 76 30 100 11 41 40
60 40 25z m-2271 -107 c44 -163 50 -209 21 -180 -15 15 -63 183 -56 199 9 25
25 17 35 -19z m4407 -53 c-6 -6 -36 52 -36 69 1 7 10 -4 21 -25 11 -22 18 -41
15 -44z m-1276 35 c54 -48 92 -96 85 -108 -7 -12 -137 105 -143 128 -6 21 19
13 58 -20z m1183 -3 c-2 -6 -43 -10 -98 -10 -104 0 -135 17 -45 25 69 6 146
-2 143 -15z m-245 -7 c-6 -16 -180 -59 -192 -47 -14 13 -3 20 66 40 75 21 131
24 126 7z m-2298 -126 c43 -51 59 -79 55 -90 -5 -14 -15 -8 -52 33 -69 76 -95
113 -88 125 11 17 19 10 85 -68z m2060 65 c0 -12 -152 -87 -177 -87 -33 0 -5
24 69 60 87 43 108 48 108 27z m-1650 -59 c0 -5 -19 -36 -41 -69 -40 -56 -76
-89 -99 -89 -18 0 -11 29 10 42 11 7 41 41 66 75 41 56 64 71 64 41z m1137
-87 c40 -61 54 -101 34 -101 -8 0 -111 152 -111 165 0 3 8 5 17 3 9 -2 36 -32
60 -67z m293 29 c0 -5 -21 -23 -47 -41 -27 -18 -60 -43 -76 -57 -22 -21 -30
-23 -40 -13 -10 10 -5 18 23 42 86 72 140 99 140 69z m-982 -113 c2 -73 0 -88
-14 -94 -23 -9 -34 14 -34 75 0 45 -3 52 -20 52 -11 0 -20 7 -20 15 0 8 9 15
20 15 11 0 23 7 27 15 3 9 13 15 22 13 13 -3 17 -19 19 -91z m164 76 c10 -9
18 -20 18 -25 0 -12 -34 -10 -47 3 -14 14 -43 5 -43 -14 0 -9 9 -12 28 -9 56
8 85 -65 42 -108 -39 -39 -99 -12 -113 51 -8 34 10 96 31 108 26 16 63 13 84
-6z m1348 -258 c0 -88 -1 -95 -20 -95 -18 0 -20 7 -20 60 0 53 -2 60 -20 60
-11 0 -20 7 -20 15 0 8 5 15 11 15 6 0 22 9 36 20 14 11 27 20 29 20 2 0 4
-43 4 -95z m173 88 c23 -6 22 -16 -8 -61 -13 -20 -27 -56 -31 -79 -6 -37 -10
-43 -30 -43 -21 0 -24 3 -18 28 4 15 17 47 30 71 13 24 24 45 24 47 0 2 -18 4
-40 4 -28 0 -40 4 -40 14 0 8 6 17 13 19 14 7 75 6 100 0z m-5315 -345 c13 -4
22 -13 20 -19 -4 -12 1 -12 -88 -3 -70 7 -87 15 -75 34 7 11 104 3 143 -12z
m131 -33 c2 -2 1 -11 -2 -19 -8 -21 -51 -6 -55 19 -3 15 1 17 24 11 16 -4 31
-9 33 -11z m5281 -390 c0 -19 -35 -33 -106 -41 -44 -6 -54 -4 -54 8 0 10 21
20 68 30 89 20 92 20 92 3z"/>
<path d="M7472 5148 c-13 -13 -16 -75 -6 -102 3 -9 14 -16 24 -16 22 0 30 19
30 69 0 33 -14 61 -30 61 -3 0 -11 -5 -18 -12z"/>
<path d="M6422 4678 c-16 -16 -15 -33 4 -48 22 -19 54 12 38 37 -14 22 -27 26
-42 11z"/>
<path d="M3557 3980 c-16 -22 -16 -25 -1 -28 21 -5 26 2 22 30 l-3 23 -18 -25z"/>
<path d="M5145 3280 c-9 -15 3 -30 24 -30 25 0 33 11 20 27 -13 15 -35 17 -44
3z"/>
<path d="M5152 3211 c-21 -13 -10 -46 16 -49 27 -4 40 22 22 43 -14 17 -20 18
-38 6z"/>
<path d="M7277 3185 c-17 -24 -17 -25 3 -25 15 0 20 6 20 25 0 30 -1 30 -23 0z"/>
<path d="M6299 2884 c-15 -18 -2 -47 24 -52 20 -4 32 35 17 53 -16 19 -24 19
-41 -1z"/>
<path d="M7124 2166 c-10 -26 0 -51 21 -51 16 0 20 7 20 30 0 33 -30 49 -41
21z"/>
</g>
</svg>
